# xmcd
#
# Track frame offsets:
#       150
#       15206
#       28415
#       38067
#       54899
#       70004
#       84133
#       94800
#       109071
#       119393
#       137230
#       150671
#       163634
#
# Disc length: 2352 seconds
#
# Revision: 1
# Processed by: cddbd v1.5.2PL0 Copyright (c) Steve Scherf et al.
# Submitted via: FreeDbEdit v0.1
#
DISCID=98092e0d
DTITLE=The Stanley Brothers - Rovin' Gambler (Songs Bob Dylan Covered)
DYEAR=1900
DGENRE=country
TTITLE0=Roving Gambler
TTITLE1=Pass Me Not
TTITLE2=I Am the Man Thomas
TTITLE3=Hide Me Rock of Ages
TTITLE4=White Dove
TTITLE5=Rank Stranger
TTITLE6=Somebody Touched Me
TTITLE7=I'll Not Be a Stranger
TTITLE8=Stonewalls and Steel Bars
TTITLE9=In the Pines
TTITLE10=Man of Constant Sorrow
TTITLE11=Little Maggie
TTITLE12=Lonesome River
EXTD=
EXTT0=
EXTT1=
EXTT2=
EXTT3=
EXTT4=
EXTT5=
EXTT6=
EXTT7=
EXTT8=
EXTT9=
EXTT10=
EXTT11=
EXTT12=
PLAYORDER=
